<svg xmlns="http://www.w3.org/2000/svg" width="19.8" height="17.716" viewBox="0.579 0.347 19.8 17.716"><g data-name="Group 10"><path d="M14.126 16.5a1.563 1.563 0 1 1 3.126 0 1.563 1.563 0 0 1-3.126 0h0Z" stroke-linejoin="round" stroke-linecap="round" stroke-width="2" stroke="#fff" fill="transparent" data-name="Stroke 85"/><path d="M5.79 16.5a1.563 1.563 0 1 1 3.125 0 1.563 1.563 0 0 1-3.126 0h0Z" stroke-linejoin="round" stroke-linecap="round" stroke-width="2" stroke="#fff" fill="transparent" data-name="Stroke 86"/><path d="M.579.347h2.657l2.23 11.37c.249 1.266 1.34 2.178 2.606 2.178h10.223" stroke-linejoin="round" stroke-linecap="round" stroke-width="2" stroke="#fff" fill="transparent" data-name="Stroke 87"/><path d="M3.705 2.432H20.38l-.724 5.697a1.843 1.843 0 0 1-1.838 1.597H5.095" stroke-linejoin="round" stroke-linecap="round" stroke-width="2" stroke="#fff" fill="transparent" data-name="Stroke 88"/></g></svg>